# xmcd
#
# Track frame offsets: 
#        150
#        12022
#        24275
#        41035
#        52027
#
# Disc length: 905 seconds
#
# Revision: 0
# Processed by: cddbd v1.4PL0 Copyright (c) Steve Scherf et al.
# Submitted via: ExactAudioCopy v0.95a2
#
DISCID=33038705
DTITLE=Tanya Rae Brown - Meet The Mrs.
DYEAR=1999
DGENRE=Country
TTITLE0=Gad About
TTITLE1=His And Hers
TTITLE2=Someday You'll Want Me To Want You
TTITLE3=I Wouldn't Buy A Used Car From Him
TTITLE4=In Remembrance Of Me
EXTD=
EXTT0=
EXTT1=
EXTT2=
EXTT3=
EXTT4=
PLAYORDER=
